<?xml version="1.0" standalone="no"?>
<!DOCTYPE svg PUBLIC "-//W3C//DTD SVG 20010904//EN"
 "http://www.w3.org/TR/2001/REC-SVG-20010904/DTD/svg10.dtd">
<svg version="1.0" xmlns="http://www.w3.org/2000/svg"
 width="150.000000pt" height="585.000000pt" viewBox="0 0 150.000000 585.000000"
 preserveAspectRatio="xMidYMid meet">
<metadata>
Created by potrace 1.16, written by Peter Selinger 2001-2019
</metadata>
<g transform="translate(0.000000,585.000000) scale(0.100000,-0.100000)"
fill="#000000" stroke="none">
<path d="M10 3865 l0 -1985 393 2 392 3 -3 75 c-9 208 -77 440 -204 695 -117
234 -270 466 -416 633 -93 105 -142 166 -142 174 0 32 83 -17 173 -101 259
-241 434 -474 531 -707 21 -49 41 -98 46 -109 29 -67 -10 268 -60 515 -142
705 -347 1330 -538 1644 -24 38 -40 71 -38 74 9 9 67 -35 133 -99 114 -112
226 -304 332 -570 84 -210 148 -419 267 -871 16 -60 31 -108 34 -108 3 0 6 89
8 198 2 108 7 271 13 362 10 176 52 605 69 705 6 33 15 92 20 130 24 168 88
467 137 635 14 47 29 101 33 120 18 73 112 327 164 446 l55 124 -700 0 -699 0
0 -1985z m419 1438 c5 -21 13 -67 17 -103 8 -73 22 -60 23 23 1 35 5 47 16 47
9 0 15 -9 15 -25 0 -19 4 -23 17 -18 13 5 15 3 9 -13 -4 -10 -10 -32 -13 -49
-4 -23 -2 -27 6 -15 10 13 12 13 21 0 9 -13 12 -13 24 3 16 21 36 22 36 2 0
-8 -3 -15 -8 -15 -10 0 -35 -41 -29 -47 3 -2 23 5 46 16 48 25 71 27 71 6 0
-8 -6 -15 -13 -15 -7 0 -22 -7 -33 -15 -16 -12 -12 -12 29 1 26 9 47 20 47 25
0 5 9 9 20 9 39 0 19 -21 -55 -57 -73 -37 -88 -55 -49 -61 78 -12 89 -32 17
-32 l-48 0 30 -24 c32 -26 28 -49 -5 -28 -39 24 -31 -9 16 -63 25 -30 41 -55
35 -55 -6 0 -41 23 -76 51 -55 43 -65 48 -65 31 0 -12 5 -24 10 -27 16 -10 12
-65 -5 -65 -8 0 -15 9 -15 20 0 10 -6 23 -13 27 -8 4 -17 17 -21 28 -7 17 -11
14 -27 -22 -21 -49 -34 -56 -26 -15 2 15 2 35 -2 46 -6 15 -13 6 -33 -40 -14
-33 -28 -67 -31 -76 -8 -22 -27 -24 -27 -3 0 9 7 32 15 52 18 43 10 57 -15 26
-10 -13 -23 -23 -29 -23 -16 0 -13 26 4 40 9 7 25 26 37 43 l21 29 -31 -16
c-39 -20 -52 -20 -52 -1 0 8 6 15 13 15 8 0 22 10 33 21 l19 22 -74 -7 c-58
-6 -72 -5 -69 6 3 7 25 17 51 21 46 9 69 33 42 43 -8 4 -15 12 -15 19 0 7 -20
20 -45 29 -25 10 -45 22 -45 27 0 13 21 11 70 -6 51 -18 58 -19 42 -3 -7 7
-12 15 -12 19 0 13 44 6 63 -9 27 -24 30 -8 8 39 -25 50 -24 49 -8 49 7 0 21
-14 31 -31 10 -17 19 -29 21 -27 1 2 -1 28 -6 58 -17 122 -3 203 20 113z"/>
<path d="M1408 5773 c-36 -166 -104 -504 -118 -583 -86 -508 -96 -576 -124
-785 -55 -413 -121 -1184 -102 -1202 3 -3 6 6 6 22 0 66 142 532 226 740 59
145 130 288 153 309 45 40 38 -28 -19 -204 -78 -239 -103 -328 -150 -519 -117
-479 -157 -846 -167 -1538 l-6 -453 -549 0 -548 0 0 -775 0 -775 740 0 740 0
0 2920 0 2920 -33 0 c-32 0 -32 0 -49 -77z m-308 -4370 c1 -114 31 -238 92
-372 28 -63 136 -223 202 -301 68 -80 56 -88 -50 -35 -107 55 -179 130 -256
270 -31 56 -32 54 -17 -31 44 -251 134 -486 294 -769 41 -73 75 -136 75 -140
0 -16 -99 67 -167 140 -127 136 -198 251 -271 436 -53 135 -122 367 -122 411
0 49 -18 39 -66 -34 -119 -186 -150 -229 -222 -314 -86 -102 -206 -205 -285
-246 -122 -63 -264 -92 -162 -33 235 136 386 329 576 736 l26 56 -71 -43 c-77
-47 -233 -103 -361 -129 -98 -19 -265 -34 -271 -23 -7 11 12 18 305 109 284
89 388 168 445 342 5 15 21 17 156 17 l150 0 0 -47z"/>
</g>
</svg>
