<?xml version="1.0" standalone="no"?>
<!DOCTYPE svg PUBLIC "-//W3C//DTD SVG 20010904//EN"
 "http://www.w3.org/TR/2001/REC-SVG-20010904/DTD/svg10.dtd">
<svg version="1.0" xmlns="http://www.w3.org/2000/svg"
viewBox="0 0 676.000000 199.000000"
 preserveAspectRatio="xMidYMid meet">

<g transform="translate(0.000000,199.000000) scale(0.100000,-0.100000)"
fill="#000000" stroke="none">
<path d="M3800 1850 l0 -30 350 0 350 0 0 30 0 30 -350 0 -350 0 0 -30z"/>
<path d="M1350 1780 c-72 -15 -164 -66 -210 -116 -56 -61 -88 -135 -100 -231
-29 -227 69 -413 247 -474 57 -20 88 -24 193 -23 105 0 134 4 182 22 112 45
191 129 226 242 23 75 22 245 -1 321 -34 114 -118 200 -234 241 -67 23 -230
33 -303 18z m217 -216 c68 -51 94 -143 75 -266 -18 -117 -65 -163 -170 -163
-55 0 -73 4 -101 24 -51 37 -73 97 -73 201 0 124 33 191 112 223 31 13 130 1
157 -19z"/>
<path d="M4870 1776 c-158 -34 -245 -158 -205 -291 27 -93 107 -145 297 -195
62 -16 124 -38 138 -48 36 -27 39 -80 6 -111 -26 -24 -89 -38 -130 -27 -40 10
-85 54 -97 96 l-12 39 -111 -5 c-61 -3 -117 -7 -123 -9 -26 -8 13 -125 62
-190 72 -93 318 -134 491 -81 194 60 265 299 127 427 -46 43 -110 70 -253 105
-99 25 -140 39 -152 55 -24 28 -23 35 8 66 23 22 32 25 80 21 62 -5 99 -32
109 -79 l7 -29 121 7 c67 3 123 7 125 8 8 6 -22 93 -44 132 -46 79 -160 123
-314 122 -41 0 -100 -6 -130 -13z"/>
<path d="M90 1360 l0 -420 130 0 130 0 0 170 0 170 140 0 140 0 0 -170 0 -170
135 0 135 0 0 420 0 420 -135 0 -135 0 0 -145 0 -145 -140 0 -140 0 0 145 0
145 -130 0 -130 0 0 -420z"/>
<path d="M2050 1361 l0 -421 130 0 130 0 0 170 0 170 26 0 c29 0 64 -16 82
-39 6 -9 47 -80 90 -158 l77 -143 148 0 148 0 -68 131 c-74 143 -121 205 -167
224 l-30 13 52 22 c95 41 142 116 142 225 -1 89 -47 161 -129 199 -43 19 -66
21 -338 24 l-293 4 0 -421z m460 234 c51 -26 53 -100 4 -132 -18 -12 -54 -18
-115 -21 l-89 -4 0 86 0 86 85 0 c57 0 96 -5 115 -15z"/>
<path d="M2900 1680 l0 -100 130 0 130 0 0 -320 0 -320 130 0 130 0 0 320 0
320 135 0 135 0 0 100 0 100 -395 0 -395 0 0 -100z"/>
<path d="M3810 1360 l0 -420 355 0 355 0 0 100 0 100 -225 0 -225 0 0 75 0 75
200 0 200 0 0 85 0 85 -200 0 -200 0 0 60 0 60 215 0 215 0 0 100 0 100 -345
0 -345 0 0 -420z"/>
<path d="M5530 1360 l0 -420 130 0 130 0 0 420 0 420 -130 0 -130 0 0 -420z"/>
<path d="M5980 1360 l0 -420 355 0 355 0 0 100 0 100 -225 0 -225 0 0 75 0 75
200 0 200 0 0 85 0 85 -200 0 -200 0 0 60 0 60 215 0 215 0 0 100 0 100 -345
0 -345 0 0 -420z"/>
<path d="M90 455 l0 -195 60 0 60 0 0 69 0 68 71 7 c56 6 76 13 101 34 61 55
42 174 -32 199 -19 7 -86 12 -147 12 l-113 1 0 -195z m198 103 c33 -33 2 -78
-52 -78 -24 0 -26 3 -26 45 0 44 1 45 33 45 18 0 38 -5 45 -12z"/>
<path d="M3562 491 c3 -166 10 -186 78 -225 46 -27 172 -28 217 -2 61 37 73
76 73 235 l0 142 -57 -3 -58 -3 -3 -135 c-2 -123 -4 -137 -23 -152 -28 -24
-64 -23 -89 2 -18 18 -20 33 -20 155 l0 135 -61 0 -61 0 4 -149z"/>
<path d="M3203 607 c-35 -17 -43 -26 -43 -49 0 -21 -5 -28 -20 -28 -17 0 -20
-7 -20 -40 0 -33 3 -40 20 -40 18 0 20 -7 20 -83 0 -67 3 -87 18 -99 24 -21
60 -29 105 -21 34 5 37 8 37 39 0 28 -4 33 -27 36 -27 3 -28 6 -31 66 l-3 62
31 0 c28 0 30 2 30 40 0 38 -2 40 -30 40 -29 0 -30 1 -30 50 0 28 -3 50 -7 49
-5 0 -27 -10 -50 -22z"/>
<path d="M4247 503 c-4 -71 -7 -158 -7 -195 l0 -68 50 0 c38 0 50 4 50 15 0
19 9 19 31 -1 10 -9 36 -17 57 -18 81 -2 127 63 120 167 -4 49 -9 63 -36 89
-25 26 -39 31 -77 31 -25 0 -51 -5 -57 -11 -22 -22 -28 -12 -28 53 l0 65 -48
0 -49 0 -6 -127z m178 -67 c14 -10 20 -26 20 -54 0 -67 -47 -96 -79 -50 -22
31 -20 74 4 98 24 24 30 24 55 6z"/>
<path d="M5340 595 l0 -35 50 0 50 0 0 35 0 35 -50 0 -50 0 0 -35z"/>
<path d="M556 531 c-36 -8 -86 -48 -86 -70 0 -5 21 -11 47 -15 34 -4 51 -2 63
9 22 20 76 20 84 0 7 -18 -13 -27 -98 -45 -98 -20 -133 -78 -83 -136 20 -23
31 -27 80 -27 36 0 65 6 82 17 22 15 26 15 31 1 4 -10 20 -15 53 -15 l46 0 -3
102 c-4 115 -11 141 -44 162 -29 18 -120 27 -172 17z m114 -166 c0 -19 -44
-65 -62 -65 -50 1 -48 50 2 67 48 16 60 16 60 -2z"/>
<path d="M1232 530 c-49 -12 -72 -37 -72 -81 0 -50 30 -73 115 -89 51 -10 65
-16 65 -30 0 -33 -51 -40 -76 -11 -13 15 -26 17 -63 13 -55 -6 -55 -5 -46 -31
21 -66 210 -78 262 -16 48 55 14 127 -63 140 -73 11 -99 21 -99 35 0 20 49 25
66 8 15 -15 109 -13 109 2 0 22 -54 58 -96 64 -53 7 -57 7 -102 -4z"/>
<path d="M1576 531 c-36 -8 -86 -48 -86 -70 0 -5 21 -11 47 -15 34 -4 51 -2
63 9 22 20 76 20 84 0 7 -18 -13 -27 -98 -45 -98 -20 -133 -78 -83 -136 20
-23 31 -27 80 -27 36 0 65 6 82 17 22 15 26 15 31 1 4 -10 20 -15 53 -15 l46
0 -3 102 c-4 115 -11 141 -44 162 -29 18 -120 27 -172 17z m114 -166 c0 -19
-44 -65 -62 -65 -50 1 -48 50 2 67 48 16 60 16 60 -2z"/>
<path d="M1940 533 c-40 -13 -60 -29 -75 -58 -29 -62 -13 -147 35 -190 30 -27
100 -27 129 -1 l21 19 0 -42 c0 -34 -4 -43 -25 -53 -19 -9 -29 -8 -50 6 -13 9
-45 19 -70 23 -43 5 -45 4 -45 -18 1 -54 45 -79 140 -79 141 0 160 28 160 240
l0 150 -50 0 c-45 0 -50 -2 -50 -22 -1 -20 -2 -21 -11 -6 -5 10 -26 22 -47 28
-40 11 -40 11 -62 3z m94 -89 c32 -31 10 -114 -30 -114 -24 0 -44 31 -44 69 0
57 39 81 74 45z"/>
<path d="M2323 531 c-71 -18 -113 -70 -113 -141 0 -38 21 -90 46 -112 26 -23
106 -40 155 -32 41 7 99 40 106 61 6 16 -85 29 -100 14 -19 -19 -75 -13 -87 8
-5 11 -10 22 -10 25 0 3 47 6 105 6 l105 0 0 36 c0 48 -24 96 -58 116 -34 20
-107 29 -149 19z m91 -83 c8 -12 13 -25 10 -30 -8 -12 -104 -10 -104 3 0 48
66 68 94 27z"/>
<path d="M2873 531 c-71 -18 -113 -70 -113 -141 0 -38 21 -90 46 -112 26 -23
106 -40 155 -32 41 7 99 40 106 61 6 16 -85 29 -100 14 -19 -19 -75 -13 -87 8
-5 11 -10 22 -10 25 0 3 47 6 105 6 l105 0 0 36 c0 48 -24 96 -58 116 -34 20
-107 29 -149 19z m91 -83 c8 -12 13 -25 10 -30 -8 -12 -104 -10 -104 3 0 48
66 68 94 27z"/>
<path d="M810 521 c0 -4 25 -67 55 -139 30 -72 55 -133 55 -136 0 -16 -37 -36
-66 -36 -34 0 -35 -1 -32 -32 3 -32 4 -33 57 -36 61 -4 101 9 119 38 11 18
132 334 132 345 0 12 -101 4 -105 -7 -2 -7 -15 -49 -28 -93 l-24 -80 -28 93
-29 92 -53 0 c-29 0 -53 -4 -53 -9z"/>
<path d="M4145 518 c-11 -6 -25 -19 -32 -27 -11 -14 -12 -13 -13 7 0 19 -5 22
-45 22 l-45 0 0 -109 c0 -60 -3 -123 -6 -140 l-6 -31 56 0 56 0 0 73 c0 89 15
121 56 125 25 2 33 10 43 38 7 20 11 37 9 39 -11 11 -56 13 -73 3z"/>
<path d="M4686 521 c-36 -8 -86 -48 -86 -70 0 -5 21 -11 47 -15 34 -4 51 -2
63 9 22 20 76 20 84 0 7 -18 -13 -27 -98 -45 -98 -20 -133 -78 -83 -136 20
-23 31 -27 80 -27 36 0 65 6 82 17 22 15 26 15 31 1 4 -10 20 -15 53 -15 l46
0 -3 102 c-4 115 -11 141 -44 162 -29 18 -120 27 -172 17z m114 -166 c0 -19
-44 -65 -62 -65 -50 1 -48 50 2 67 48 16 60 16 60 -2z"/>
<path d="M5145 523 c-11 -3 -32 -14 -47 -25 -28 -19 -28 -19 -28 1 0 18 -6 21
-50 21 l-50 0 0 -140 0 -140 55 0 55 0 0 83 c0 94 12 121 51 115 23 -3 24 -6
27 -100 l3 -98 54 0 55 0 0 104 c0 126 -8 152 -55 171 -36 16 -38 16 -70 8z"/>
<path d="M5582 520 c-49 -12 -72 -37 -72 -81 0 -50 30 -73 115 -89 51 -10 65
-16 65 -30 0 -33 -51 -40 -76 -11 -13 15 -26 17 -63 13 -55 -6 -55 -5 -46 -31
21 -66 210 -78 262 -16 54 62 16 125 -87 143 -67 12 -87 23 -76 41 10 15 52
14 68 -2 14 -14 108 -11 108 3 0 22 -54 58 -96 64 -53 7 -57 7 -102 -4z"/>
<path d="M6003 519 c-18 -5 -35 -14 -38 -19 -9 -15 -25 -12 -25 5 0 11 -12 15
-45 15 -44 0 -45 0 -45 -33 0 -19 -3 -82 -7 -140 l-6 -107 56 0 57 0 0 81 c0
91 10 119 44 119 31 0 36 -15 36 -116 l0 -84 50 0 50 0 1 68 c2 107 9 127 44
127 l30 0 3 -97 3 -98 54 0 55 0 0 104 c0 58 -4 116 -10 130 -19 51 -104 66
-159 27 -17 -12 -31 -17 -31 -11 0 6 -16 18 -35 26 -39 16 -38 16 -82 3z"/>
<path d="M6483 521 c-71 -18 -113 -70 -113 -141 0 -39 21 -90 48 -114 27 -23
102 -38 154 -30 40 7 99 40 105 61 6 16 -85 29 -100 14 -19 -19 -75 -13 -87 8
-5 11 -10 22 -10 25 0 3 47 6 105 6 l105 0 0 36 c0 48 -24 96 -58 116 -34 20
-107 29 -149 19z m91 -83 c8 -12 13 -25 10 -30 -8 -12 -104 -10 -104 3 0 48
66 68 94 27z"/>
<path d="M5340 380 l0 -140 50 0 50 0 0 140 0 140 -50 0 -50 0 0 -140z"/>
</g>
</svg>
