<?xml version="1.0" standalone="no"?>
<!DOCTYPE svg PUBLIC "-//W3C//DTD SVG 20010904//EN"
 "http://www.w3.org/TR/2001/REC-SVG-20010904/DTD/svg10.dtd">
<svg version="1.0" xmlns="http://www.w3.org/2000/svg"
viewBox="0 0 676.000000 115.000000"
 preserveAspectRatio="xMidYMid meet">

<g transform="translate(0.000000,199.000000) scale(0.100000,-0.100000)"
fill="#FFF" stroke="none">
<path d="M3800 1850 l0 -30 350 0 350 0 0 30 0 30 -350 0 -350 0 0 -30z"/>
<path d="M1350 1780 c-72 -15 -164 -66 -210 -116 -56 -61 -88 -135 -100 -231
-29 -227 69 -413 247 -474 57 -20 88 -24 193 -23 105 0 134 4 182 22 112 45
191 129 226 242 23 75 22 245 -1 321 -34 114 -118 200 -234 241 -67 23 -230
33 -303 18z m217 -216 c68 -51 94 -143 75 -266 -18 -117 -65 -163 -170 -163
-55 0 -73 4 -101 24 -51 37 -73 97 -73 201 0 124 33 191 112 223 31 13 130 1
157 -19z"/>
<path d="M4870 1776 c-158 -34 -245 -158 -205 -291 27 -93 107 -145 297 -195
62 -16 124 -38 138 -48 36 -27 39 -80 6 -111 -26 -24 -89 -38 -130 -27 -40 10
-85 54 -97 96 l-12 39 -111 -5 c-61 -3 -117 -7 -123 -9 -26 -8 13 -125 62
-190 72 -93 318 -134 491 -81 194 60 265 299 127 427 -46 43 -110 70 -253 105
-99 25 -140 39 -152 55 -24 28 -23 35 8 66 23 22 32 25 80 21 62 -5 99 -32
109 -79 l7 -29 121 7 c67 3 123 7 125 8 8 6 -22 93 -44 132 -46 79 -160 123
-314 122 -41 0 -100 -6 -130 -13z"/>
<path d="M90 1360 l0 -420 130 0 130 0 0 170 0 170 140 0 140 0 0 -170 0 -170
135 0 135 0 0 420 0 420 -135 0 -135 0 0 -145 0 -145 -140 0 -140 0 0 145 0
145 -130 0 -130 0 0 -420z"/>
<path d="M2050 1361 l0 -421 130 0 130 0 0 170 0 170 26 0 c29 0 64 -16 82
-39 6 -9 47 -80 90 -158 l77 -143 148 0 148 0 -68 131 c-74 143 -121 205 -167
224 l-30 13 52 22 c95 41 142 116 142 225 -1 89 -47 161 -129 199 -43 19 -66
21 -338 24 l-293 4 0 -421z m460 234 c51 -26 53 -100 4 -132 -18 -12 -54 -18
-115 -21 l-89 -4 0 86 0 86 85 0 c57 0 96 -5 115 -15z"/>
<path d="M2900 1680 l0 -100 130 0 130 0 0 -320 0 -320 130 0 130 0 0 320 0
320 135 0 135 0 0 100 0 100 -395 0 -395 0 0 -100z"/>
<path d="M3810 1360 l0 -420 355 0 355 0 0 100 0 100 -225 0 -225 0 0 75 0 75
200 0 200 0 0 85 0 85 -200 0 -200 0 0 60 0 60 215 0 215 0 0 100 0 100 -345
0 -345 0 0 -420z"/>
<path d="M5530 1360 l0 -420 130 0 130 0 0 420 0 420 -130 0 -130 0 0 -420z"/>
<path d="M5980 1360 l0 -420 355 0 355 0 0 100 0 100 -225 0 -225 0 0 75 0 75
200 0 200 0 0 85 0 85 -200 0 -200 0 0 60 0 60 215 0 215 0 0 100 0 100 -345
0 -345 0 0 -420z"/>
</g>
</svg>
